# xmcd
#
# Track frame offsets: 
#        150
#        14732
#        26079
#        37356
#        49279
#        62339
#        77167
#        87711
#        102891
#        114544
#        124259
#        138480
#        152977
#        167259
#        182492
#        197273
#        206233
#        218652
#        233778
#        243840
#
# Disc length: 3481 seconds
#
# Revision: 0
# Processed by: cddbd v1.4PL0 Copyright (c) Steve Scherf et al.
# Submitted via: ExactAudioCopy v0.90b4
#
DISCID=1a0d9714
DTITLE=yves montand - un gamin de paris
DYEAR=2003
DGENRE=Chanson
TTITLE0=a paris
TTITLE1=les grands boulevards
TTITLE2=un gamin de paris
TTITLE3=barbara
TTITLE4=la galerien
TTITLE5=une demoiselle sur une balancoire
TTITLE6=bal,petit bal
TTITLE7=les feuilles mortes
TTITLE8=c'est si bon
TTITLE9=dans les plaines du far west
TTITLE10=les enfants qui s'aiment
TTITLE11=ma douce vallee
TTITLE12=mathilda
TTITLE13=clementine
TTITLE14=dis-moi jo
TTITLE15=luna park
TTITLE16=mais qu'est-ce que j'ai
TTITLE17=les cireurs de souliers de broadway
TTITLE18=champion du monde
TTITLE19=le chant des partisans
EXTD=tim 2003
EXTT0=
EXTT1=
EXTT2=
EXTT3=
EXTT4=
EXTT5=
EXTT6=
EXTT7=
EXTT8=
EXTT9=
EXTT10=
EXTT11=
EXTT12=
EXTT13=
EXTT14=
EXTT15=
EXTT16=
EXTT17=
EXTT18=
EXTT19=
PLAYORDER=
